<svg width="528" height="550" viewBox="0 0 528 550" fill="none" xmlns="http://www.w3.org/2000/svg">
<mask id="mask0_135_21373" style="mask-type:alpha" maskUnits="userSpaceOnUse" x="0" y="0" width="528" height="550">
<rect width="528" height="550" fill="#C4C4C4"/>
</mask>
<g mask="url(#mask0_135_21373)">
<path d="M442.474 459.435C463.638 459.435 480.795 454.715 480.795 448.893C480.795 443.071 463.638 438.351 442.474 438.351C421.31 438.351 404.153 443.071 404.153 448.893C404.153 454.715 421.31 459.435 442.474 459.435Z" fill="#263238"/>
<path d="M244.411 472.839C204.526 472.839 198.638 467.076 198.057 462.423C197.926 461.454 198.021 460.468 198.336 459.542C198.652 458.617 199.178 457.777 199.873 457.089C210.617 445.816 272.531 450.583 358.203 457.178C370.157 458.098 382.514 459.044 395.187 459.99C481.754 466.421 516.607 465.588 523.808 456.888C525.27 455.11 525.573 452.89 524.766 449.889C521.336 437.342 475.487 437.279 458.123 438.263C457.726 438.284 457.336 438.147 457.039 437.883C456.741 437.618 456.56 437.248 456.534 436.851C456.522 436.654 456.549 436.457 456.614 436.271C456.679 436.085 456.78 435.914 456.911 435.768C457.043 435.621 457.202 435.502 457.379 435.417C457.557 435.333 457.75 435.284 457.946 435.274C464.592 434.883 522.975 431.945 527.654 449.145C528.725 453.105 528.234 456.27 526.115 458.842C518.032 468.653 484.944 469.699 394.973 463.016C382.287 462.07 369.93 461.125 357.976 460.204C276.314 453.899 211.802 448.943 202.042 459.195C201.656 459.562 201.363 460.015 201.188 460.517C201.013 461.019 200.96 461.556 201.033 462.083C201.399 465.059 208.599 471.717 266.605 469.397C299.05 468.136 331.646 464.567 331.974 464.529C332.354 464.514 332.725 464.643 333.013 464.891C333.301 465.139 333.485 465.487 333.526 465.864C333.568 466.242 333.465 466.621 333.237 466.926C333.01 467.23 332.676 467.437 332.302 467.505C331.974 467.505 299.277 471.086 266.731 472.385C258.358 472.688 250.943 472.839 244.411 472.839Z" fill="white" stroke="#263238" stroke-width="1.1133" stroke-miterlimit="10"/>
<path d="M428.225 458.149C453.164 458.149 473.381 437.932 473.381 412.993C473.381 388.054 453.164 367.837 428.225 367.837C403.286 367.837 383.069 388.054 383.069 412.993C383.069 437.932 403.286 458.149 428.225 458.149Z" fill="white"/>
<path d="M428.225 458.149C436.443 458.154 444.506 455.916 451.545 451.677C458.584 447.437 464.333 441.356 468.171 434.09C472.009 426.824 473.791 418.648 473.325 410.444C472.859 402.239 470.162 394.318 465.525 387.534C465.033 407.205 454.176 436.245 397.709 446.232C406.022 453.899 416.917 458.154 428.225 458.149Z" fill="#3B51F7"/>
<path opacity="0.3" d="M428.225 458.149C436.443 458.154 444.506 455.916 451.545 451.677C458.584 447.437 464.333 441.356 468.171 434.09C472.009 426.824 473.791 418.648 473.325 410.444C472.859 402.239 470.162 394.318 465.525 387.534C465.033 407.205 454.176 436.245 397.709 446.232C406.022 453.899 416.917 458.154 428.225 458.149Z" fill="white"/>
<path d="M450.444 430.697C442.391 422.863 432.613 417.028 421.895 413.661C432.613 417.028 442.391 422.863 450.444 430.697H452.839C458.154 425.428 462.731 419.464 466.445 412.968C445.299 390.623 424.732 392.905 424.732 392.905C424.732 392.905 445.362 390.623 466.509 412.993C467.669 410.912 468.64 408.958 469.434 407.154C460.632 394.822 445.475 386.411 437.342 385.15L435.45 384.696C432.535 384.166 429.553 384.124 426.624 384.57C429.553 384.124 432.535 384.166 435.45 384.696L440.835 369.564C438.29 368.837 435.687 368.335 433.055 368.064C429.562 373.701 420.571 391.707 420.571 427.431C420.571 391.707 429.562 373.701 433.055 368.064C431.541 367.925 430.028 367.837 428.477 367.837C426.771 367.842 425.066 367.943 423.37 368.14C418.049 376.185 407.873 395.188 407.192 423.711C417.746 427.557 431.869 430.432 450.444 430.697ZM460.645 421.504C442.663 403.977 422.815 403.056 422.815 403.056C422.815 403.056 442.663 403.977 460.645 421.504V421.504Z" stroke="#263238" stroke-width="1.1133" stroke-linecap="round" stroke-linejoin="round"/>
<path d="M407.141 423.787C407.822 395.263 417.998 376.26 423.32 368.215C419.156 368.682 415.078 369.726 411.202 371.317C401.645 385.338 396.246 401.774 395.629 418.73C399.331 420.707 403.18 422.398 407.141 423.787Z" stroke="#263238" stroke-width="1.1133" stroke-linecap="round" stroke-linejoin="round"/>
<path d="M411.202 371.279C403.404 374.494 396.66 379.825 391.731 386.67C386.802 393.515 383.885 401.602 383.309 410.017C387.022 413.431 391.163 416.347 395.629 418.692C396.246 401.736 401.645 385.3 411.202 371.279V371.279Z" stroke="#263238" stroke-width="1.1133" stroke-linecap="round" stroke-linejoin="round"/>
<path d="M469.371 407.154C470.354 404.983 471.196 402.751 471.893 400.471C470.008 394.04 466.722 388.106 462.272 383.095L458.779 394.746L462.209 383.095C459.423 379.97 456.22 377.246 452.688 374.999L448.842 389.387L452.713 375.062C449.021 372.701 445.002 370.895 440.784 369.703L435.4 384.835C443.647 386.02 456.395 390.875 469.371 407.154Z" stroke="#263238" stroke-width="1.1133" stroke-linecap="round" stroke-linejoin="round"/>
<path d="M473.62 415.124C473.62 414.468 473.62 413.863 473.62 413.157C473.62 408.863 473.009 404.592 471.805 400.471C471.108 402.751 470.265 404.983 469.283 407.154C468.742 408.487 468.101 409.777 467.366 411.013C467.442 411.089 466.282 412.917 466.357 412.993C466.433 413.068 465.096 415.263 465.096 415.187C462.095 420.521 453.041 430.735 453.193 430.735C453.041 430.735 448.3 435.035 445.715 437.204C440.987 441.12 435.975 444.682 430.722 447.859H431.05H430.722C425.555 450.982 420.212 453.802 414.72 456.308C419.13 457.695 423.727 458.401 428.351 458.401C429.12 458.401 429.877 458.401 430.621 458.401C439.864 453.37 454.554 441.895 473.62 415.124Z" stroke="#263238" stroke-width="1.1133" stroke-linecap="round" stroke-linejoin="round"/>
<path d="M473.62 415.124C454.554 441.895 439.864 453.37 430.697 458.287C441.938 457.721 452.566 452.985 460.503 445.004C468.44 437.022 473.117 426.369 473.62 415.124V415.124Z" stroke="#263238" stroke-width="1.1133" stroke-linecap="round" stroke-linejoin="round"/>
<path d="M393.069 441.352C398.664 448.386 406.228 453.592 414.795 456.308C420.288 453.802 425.631 450.982 430.797 447.859C420.029 449.851 403.182 444.908 393.069 441.352Z" stroke="#263238" stroke-width="1.1133" stroke-linecap="round" stroke-linejoin="round"/>
<path d="M430.797 447.859C436.051 444.682 441.062 441.12 445.791 437.204C413.27 440.533 393.207 430.457 384.683 424.733C386.292 430.795 389.148 436.456 393.069 441.352C403.182 444.908 420.029 449.851 430.797 447.859Z" stroke="#263238" stroke-width="1.1133" stroke-linecap="round" stroke-linejoin="round"/>
<path d="M445.791 437.204C448.376 435.035 450.708 432.866 452.839 430.722H450.444C450.62 430.886 450.797 431.05 450.961 431.227C450.797 431.05 450.62 430.886 450.444 430.722C431.869 430.457 417.746 427.582 407.141 423.812C391.644 418.44 386.058 412.665 383.309 410.08C383.233 411.114 383.183 412.135 383.183 413.182C383.184 417.089 383.688 420.98 384.683 424.758C393.207 430.457 413.27 440.533 445.791 437.204Z" stroke="#263238" stroke-width="1.1133" stroke-linecap="round" stroke-linejoin="round"/>
<path d="M428.225 458.149C453.164 458.149 473.381 437.932 473.381 412.993C473.381 388.054 453.164 367.837 428.225 367.837C403.286 367.837 383.069 388.054 383.069 412.993C383.069 437.932 403.286 458.149 428.225 458.149Z" stroke="#263238" stroke-width="1.1133" stroke-linecap="round" stroke-linejoin="round"/>
<path d="M230.085 513.281C176.935 523.395 136.015 482.317 116.781 443.001L116.122 441.618C115.135 439.722 114.54 437.646 114.374 435.515C114.208 433.384 114.473 431.241 115.154 429.215C115.835 427.189 116.917 425.321 118.337 423.723C119.756 422.124 121.484 420.829 123.415 419.914C125.347 418.998 127.443 418.482 129.579 418.396C131.715 418.309 133.846 418.655 135.846 419.411C137.845 420.167 139.671 421.319 141.215 422.797C142.759 424.276 143.989 426.05 144.831 428.015L145.322 429.035C159.948 458.959 190.284 490.571 227.543 481.328C234.576 479.736 241.196 476.681 246.973 472.364C252.75 468.047 257.554 462.563 261.073 456.268C277.22 428.652 276.66 375.392 269.663 349.805C269.151 348.174 268.973 346.458 269.14 344.758C269.307 343.057 269.815 341.408 270.633 339.909C271.451 338.409 272.564 337.09 273.904 336.03C275.243 334.969 276.783 334.19 278.431 333.739C280.078 333.287 281.8 333.172 283.493 333.401C285.186 333.63 286.816 334.198 288.285 335.07C289.753 335.943 291.031 337.103 292.041 338.48C293.052 339.858 293.774 341.425 294.165 343.088C302.055 371.549 310.73 434.3 288.495 472.303C282.847 482.258 275.199 490.936 266.033 497.79C256.866 504.644 246.38 509.525 235.234 512.127C233.514 512.579 231.78 512.958 230.085 513.281Z" fill="white"/>
<path d="M278.542 334.185C275.294 335.081 272.535 337.229 270.87 340.157C269.205 343.086 268.771 346.555 269.663 349.804C273.078 362.292 274.95 381.358 274.118 400.913C280.343 399.454 286.771 399.067 293.125 399.77C295.123 418.004 292.094 436.437 284.366 453.072C267.31 489.694 234.504 506.6 206.716 507.88C194.283 508.464 179.202 504.753 166.286 500.456C185.068 512.891 207.96 517.509 230.094 513.328C231.789 513.005 233.532 512.674 235.248 512.199C246.394 509.597 256.88 504.715 266.046 497.861C275.213 491.007 282.861 482.329 288.509 472.374C310.744 434.371 301.973 371.638 294.179 343.16C293.749 341.539 293.002 340.02 291.981 338.69C290.96 337.36 289.686 336.246 288.232 335.412C286.778 334.577 285.173 334.039 283.51 333.828C281.846 333.618 280.158 333.739 278.542 334.185Z" fill="#3B51F7"/>
<path opacity="0.5" d="M278.542 334.185C275.294 335.081 272.535 337.229 270.87 340.157C269.205 343.086 268.771 346.555 269.663 349.804C273.078 362.292 274.95 381.358 274.118 400.913C280.343 399.454 286.771 399.067 293.125 399.77C295.123 418.004 292.094 436.437 284.366 453.072C267.31 489.694 234.504 506.6 206.716 507.88C194.283 508.464 179.202 504.753 166.286 500.456C185.068 512.891 207.96 517.509 230.094 513.328C231.789 513.005 233.532 512.674 235.248 512.199C246.394 509.597 256.88 504.715 266.046 497.861C275.213 491.007 282.861 482.329 288.509 472.374C310.744 434.371 301.973 371.638 294.179 343.16C293.749 341.539 293.002 340.02 291.981 338.69C290.96 337.36 289.686 336.246 288.232 335.412C286.778 334.577 285.173 334.039 283.51 333.828C281.846 333.618 280.158 333.739 278.542 334.185Z" fill="white"/>
<path d="M230.085 513.281C176.935 523.395 136.015 482.317 116.781 443.001L116.122 441.618C115.135 439.722 114.54 437.646 114.374 435.515C114.208 433.384 114.473 431.241 115.154 429.215C115.835 427.189 116.917 425.321 118.337 423.723C119.756 422.124 121.484 420.829 123.415 419.914C125.347 418.998 127.443 418.482 129.579 418.396C131.715 418.309 133.846 418.655 135.846 419.411C137.845 420.167 139.671 421.319 141.215 422.797C142.759 424.276 143.989 426.05 144.831 428.015L145.322 429.035C159.948 458.959 190.284 490.571 227.543 481.328C234.576 479.736 241.196 476.682 246.973 472.364C252.75 468.047 257.554 462.563 261.073 456.268C277.22 428.652 276.66 375.392 269.663 349.805C269.151 348.174 268.973 346.458 269.14 344.758C269.307 343.057 269.815 341.408 270.633 339.909C271.451 338.409 272.564 337.09 273.904 336.03C275.243 334.969 276.783 334.19 278.431 333.739C280.078 333.287 281.8 333.172 283.493 333.401C285.186 333.63 286.816 334.198 288.285 335.07C289.753 335.943 291.031 337.103 292.041 338.48C293.052 339.858 293.774 341.425 294.165 343.088C302.055 371.549 310.73 434.3 288.495 472.303C282.847 482.258 275.199 490.936 266.033 497.79C256.866 504.644 246.38 509.525 235.234 512.127C233.514 512.579 231.78 512.958 230.085 513.281Z" stroke="#263238" stroke-width="1.1133" stroke-linecap="round" stroke-linejoin="round"/>
<path d="M193.281 486.809C193.434 480.718 181.182 492.525 171.081 503.28C176.115 506.12 181.402 508.485 186.874 510.345C189.758 502.745 193.136 492.675 193.281 486.809Z" fill="#3B51F7" stroke="#263238" stroke-width="1.1133" stroke-linecap="round" stroke-linejoin="round"/>
<path d="M230.085 513.279C231.78 512.957 233.524 512.625 235.239 512.15C240.258 510.901 245.163 509.231 249.901 507.158C241.675 499.816 230.44 490.178 227.673 489.813C224.498 489.379 221.529 505.11 220.02 514.601C223.398 514.357 226.759 513.916 230.085 513.279Z" fill="#3B51F7" stroke="#263238" stroke-width="1.1133" stroke-linecap="round" stroke-linejoin="round"/>
<path d="M145.322 429.035L144.831 428.015C143.989 426.05 142.759 424.276 141.215 422.798C139.671 421.319 137.845 420.168 135.846 419.411C133.846 418.655 131.715 418.31 129.579 418.396C127.444 418.482 125.347 418.999 123.415 419.914C121.484 420.829 119.756 422.125 118.337 423.723C116.918 425.321 115.835 427.189 115.154 429.215C114.473 431.241 114.208 433.384 114.374 435.515C114.541 437.646 115.135 439.722 116.122 441.618L116.781 443.002C123.534 456.809 132.293 469.541 142.774 480.784L168.635 461.834C159.089 452.278 151.21 441.192 145.322 429.035Z" fill="#3B51F7" stroke="#263238" stroke-width="1.1133" stroke-linecap="round" stroke-linejoin="round"/>
<path d="M288.495 472.302C290.199 469.357 291.718 466.308 293.042 463.174C283.431 461.811 269.108 460.132 264.18 461.54C258.339 463.221 270.044 480.786 275.912 488.997C280.745 483.944 284.969 478.341 288.495 472.302Z" fill="#3B51F7" stroke="#263238" stroke-width="1.1133" stroke-linecap="round" stroke-linejoin="round"/>
<path d="M279.287 421.183C278.695 423.274 291.989 429.553 300.908 433.521C301.992 425.608 302.557 417.632 302.6 409.646C293.413 413.373 279.864 419.143 279.287 421.183Z" fill="#3B51F7" stroke="#263238" stroke-width="1.1133" stroke-linecap="round" stroke-linejoin="round"/>
<path d="M301.052 380.448C300.283 373.543 299.309 366.998 298.197 361.025C290.843 367.1 282.291 375.21 283.073 379.317C283.854 383.423 293.07 382.189 301.052 380.448Z" fill="#3B51F7" stroke="#263238" stroke-width="1.1133" stroke-linecap="round" stroke-linejoin="round"/>
<path d="M137.346 220.177C137.346 220.177 126.938 291.73 149.367 341.596C155.975 356.18 165.862 369.04 178.258 379.174C190.653 389.308 205.222 396.442 220.829 400.019C220.829 400.019 189.219 418.405 200.33 435.317C211.441 452.229 238.393 434.853 246.788 427.095C255.184 419.337 263.757 399.248 263.165 387.04C263.071 380.762 262.297 374.514 260.856 368.403C260.856 368.403 298.674 356.902 320.748 330.533C320.748 330.533 347.436 344.53 363.401 337.806C379.366 331.081 397.466 296.834 389.995 270.57C382.523 244.307 367.127 247.261 358.492 253.11C353.96 255.886 350.045 259.561 346.988 263.909C346.988 263.909 357.465 244.597 339.414 224.107C334.095 218.101 327.478 213.385 320.065 210.316C312.653 207.247 304.639 205.906 296.631 206.393C296.631 206.393 282.23 169.721 258.171 159.528C234.113 149.336 155.21 149.06 137.346 220.177Z" fill="white"/>
<path d="M318.259 209.675C310.735 230.159 298.43 248.551 282.367 263.321C266.303 278.092 246.945 288.814 225.903 294.596C179.418 307.746 151.143 303.478 137.734 299.324C134.268 273.065 134.197 246.47 137.521 220.193C155.385 149.076 234.258 149.456 258.364 159.64C282.47 169.823 296.824 206.505 296.824 206.505C304.112 206.044 311.416 207.124 318.259 209.675ZM358.49 253.11C353.958 255.886 350.043 259.561 346.987 263.909C349.12 259.372 350.148 254.395 349.988 249.384C320.918 271.493 329.922 305.159 325.934 305.918C321.016 306.854 315.314 290.15 315.314 290.15C315.314 290.15 313.844 315.839 280.273 340.041C246.703 364.243 202.466 358.657 202.466 358.657C202.466 358.657 214.796 376.648 192.242 378.392C185.932 378.979 179.576 377.939 173.78 375.373C187.058 387.478 203.243 395.939 220.761 399.933C220.761 399.933 189.152 418.319 200.263 435.23C211.373 452.142 238.349 434.762 246.721 427.008C255.093 419.255 263.689 399.162 263.098 386.953C263.004 380.676 262.23 374.427 260.789 368.317C260.789 368.317 298.607 356.816 320.681 330.447C320.681 330.447 347.368 344.444 363.333 337.72C379.298 330.995 397.399 296.748 389.927 270.484C382.455 244.22 367.125 247.261 358.49 253.11Z" fill="#3B51F7"/>
<path opacity="0.5" d="M318.259 209.675C310.735 230.159 298.43 248.551 282.367 263.321C266.303 278.092 246.945 288.814 225.903 294.596C179.418 307.746 151.143 303.478 137.734 299.324C134.268 273.065 134.197 246.47 137.521 220.193C155.385 149.076 234.258 149.456 258.364 159.64C282.47 169.823 296.824 206.505 296.824 206.505C304.112 206.044 311.416 207.124 318.259 209.675ZM358.49 253.11C353.958 255.886 350.043 259.561 346.987 263.909C349.12 259.372 350.148 254.395 349.988 249.384C320.918 271.493 329.922 305.159 325.934 305.918C321.016 306.854 315.314 290.15 315.314 290.15C315.314 290.15 313.844 315.839 280.273 340.041C246.703 364.243 202.466 358.657 202.466 358.657C202.466 358.657 214.796 376.648 192.242 378.392C185.932 378.979 179.576 377.939 173.78 375.373C187.058 387.478 203.243 395.939 220.761 399.933C220.761 399.933 189.152 418.319 200.263 435.23C211.373 452.142 238.349 434.762 246.721 427.008C255.093 419.255 263.689 399.162 263.098 386.953C263.004 380.676 262.23 374.427 260.789 368.317C260.789 368.317 298.607 356.816 320.681 330.447C320.681 330.447 347.368 344.444 363.333 337.72C379.298 330.995 397.399 296.748 389.927 270.484C382.455 244.22 367.125 247.261 358.49 253.11Z" fill="white"/>
<path d="M260.983 368.429C248.234 371.208 235.017 371.028 222.349 367.901C209.68 364.775 197.897 358.786 187.905 350.394" stroke="#263238" stroke-width="1.1133" stroke-linecap="round" stroke-linejoin="round"/>
<path d="M137.346 220.177C137.346 220.177 126.938 291.73 149.367 341.596C155.975 356.18 165.862 369.04 178.258 379.174C190.653 389.308 205.222 396.442 220.829 400.019C220.829 400.019 189.219 418.405 200.33 435.317C211.441 452.229 238.393 434.853 246.788 427.095C255.184 419.337 263.757 399.248 263.165 387.04C263.071 380.762 262.297 374.514 260.856 368.403C260.856 368.403 298.674 356.902 320.748 330.533C320.748 330.533 347.436 344.53 363.401 337.806C379.366 331.081 397.466 296.834 389.995 270.57C382.523 244.307 367.127 247.261 358.492 253.11C353.96 255.886 350.045 259.561 346.988 263.909C346.988 263.909 357.465 244.597 339.414 224.107C334.095 218.101 327.478 213.385 320.065 210.316C312.653 207.247 304.639 205.906 296.631 206.393C296.631 206.393 282.23 169.721 258.171 159.528C234.113 149.336 155.21 149.06 137.346 220.177Z" stroke="#263238" stroke-width="1.1133" stroke-linecap="round" stroke-linejoin="round"/>
<path d="M347.007 264.004C347.007 264.004 336.129 274.709 335.045 301.388" stroke="#263238" stroke-width="1.1133" stroke-linecap="round" stroke-linejoin="round"/>
<path d="M371.986 270.582C371.356 275.205 367.864 278.566 364.203 278.051C360.542 277.535 358.116 273.37 358.746 268.747C359.376 264.124 362.868 260.763 366.529 261.279C370.19 261.795 372.639 265.955 371.986 270.582Z" fill="white" stroke="#263238" stroke-width="1.1133" stroke-linecap="round" stroke-linejoin="round"/>
<path d="M385.753 275.978C385.124 280.601 381.632 283.962 377.971 283.447C374.31 282.931 371.86 278.77 372.514 274.143C373.167 269.516 376.636 266.159 380.296 266.675C383.957 267.191 386.407 271.351 385.753 275.978Z" fill="white" stroke="#263238" stroke-width="1.1133" stroke-linecap="round" stroke-linejoin="round"/>
<path d="M390.584 287.059C390.259 287.948 389.689 288.728 388.939 289.307C388.189 289.886 387.29 290.24 386.347 290.328C385.404 290.416 384.455 290.235 383.61 289.806C382.766 289.377 382.061 288.717 381.576 287.902C381.092 287.088 380.849 286.153 380.875 285.206C380.901 284.259 381.195 283.339 381.722 282.553C382.25 281.766 382.991 281.145 383.857 280.763C384.724 280.38 385.681 280.251 386.618 280.391C388.007 280.784 389.192 281.694 389.93 282.934C390.667 284.175 390.901 285.651 390.584 287.059Z" fill="white" stroke="#263238" stroke-width="1.1133" stroke-linecap="round" stroke-linejoin="round"/>
<path d="M377.922 305.946C375.101 314.524 367.159 319.598 360.164 317.292C353.169 314.986 349.814 306.198 352.635 297.621C355.456 289.043 363.398 283.969 370.393 286.275C377.388 288.581 380.743 297.369 377.922 305.946Z" fill="white" stroke="#263238" stroke-width="1.1133" stroke-linecap="round" stroke-linejoin="round"/>
<path d="M220.838 400.066C229.551 402.269 238.77 401.175 246.726 396.995" stroke="#263238" stroke-width="1.1133" stroke-linecap="round" stroke-linejoin="round"/>
<path d="M200.459 435.342C200.459 435.342 200.925 424.787 214.398 414.851" stroke="#263238" stroke-width="1.1133" stroke-linecap="round" stroke-linejoin="round"/>
<path d="M217.009 441.445C217.009 441.445 220.228 425.988 229.097 417.595" stroke="#263238" stroke-width="1.1133" stroke-linecap="round" stroke-linejoin="round"/>
<path d="M82.7702 195.478C82.7702 195.478 64.4889 235.278 67.7148 271.603C70.9406 307.928 79.616 330.894 92.0121 337.789C104.408 344.683 114.4 339.071 118.759 329.606C123.119 320.142 108.077 292.845 108.077 292.845C108.077 292.845 112.866 263.011 124.584 240.468C136.302 217.926 138.694 214.378 138.694 214.378C138.694 214.378 106.187 189.167 82.7702 195.478Z" fill="white"/>
<path d="M82.7684 195.478C78.8547 204.559 75.6327 213.922 73.1301 223.489C85.9772 225.992 106.344 232.26 121.39 247.359C122.428 245.01 123.517 242.674 124.677 240.45C136.395 217.907 138.788 214.359 138.788 214.359C138.788 214.359 106.185 189.167 82.7684 195.478Z" fill="#3B51F7"/>
<path opacity="0.5" d="M82.7684 195.478C78.8547 204.559 75.6327 213.922 73.1301 223.489C85.9772 225.992 106.344 232.26 121.39 247.359C122.428 245.01 123.517 242.674 124.677 240.45C136.395 217.907 138.788 214.359 138.788 214.359C138.788 214.359 106.185 189.167 82.7684 195.478Z" fill="white"/>
<path d="M82.7702 195.478C82.7702 195.478 64.4889 235.278 67.7148 271.603C70.9406 307.928 79.616 330.894 92.0121 337.789C104.408 344.683 114.4 339.071 118.759 329.606C123.119 320.142 108.077 292.845 108.077 292.845C108.077 292.845 112.866 263.011 124.584 240.468C136.302 217.926 138.694 214.378 138.694 214.378C138.694 214.378 106.187 189.167 82.7702 195.478Z" stroke="#263238" stroke-width="1.1133" stroke-linecap="round" stroke-linejoin="round"/>
<path d="M92.0106 337.789C87.611 330.554 84.6193 322.552 83.1932 314.206" stroke="#263238" stroke-width="1.1133" stroke-linecap="round" stroke-linejoin="round"/>
<path d="M108.708 338.298C108.708 338.298 100.865 329.325 96.9873 312.199" stroke="#263238" stroke-width="1.1133" stroke-linecap="round" stroke-linejoin="round"/>
<path d="M102.6 257.566C101.409 251.311 87.1446 241.358 69.5234 239.119C68.3994 245.361 67.6907 251.67 67.4019 258.005C74.0591 257.881 80.7008 258.691 87.1332 260.411C96.9616 263.563 103.958 264.706 102.6 257.566Z" fill="#3B51F7" stroke="#263238" stroke-width="1.1133" stroke-linecap="round" stroke-linejoin="round"/>
<path d="M81.7161 197.881C78.9837 204.481 76.5992 211.219 74.5724 218.069C79.85 218.441 85.052 219.532 90.0344 221.312C110.474 228.482 114.273 229.07 105.398 214.677C99.9627 205.617 90.1563 200.63 81.7161 197.881Z" fill="#3B51F7" stroke="#263238" stroke-width="1.1133" stroke-linecap="round" stroke-linejoin="round"/>
<path d="M274.905 140.98C274.905 140.98 309.345 168.025 323.077 201.831C336.809 235.638 339.593 260.022 331.689 271.794C323.786 283.566 312.354 283.168 304.153 276.737C295.952 270.306 297.001 239.155 297.001 239.155C297.001 239.155 279.101 214.777 258.388 200.063C237.676 185.35 233.9 183.322 233.9 183.322C233.9 183.322 251.181 146.064 274.905 140.98Z" fill="white"/>
<path d="M274.904 140.98C251.132 146.073 233.798 183.44 233.798 183.44C233.798 183.44 237.554 185.496 258.286 200.181C262.172 202.975 265.9 205.982 269.452 209.19C275.583 192.21 286.092 177.151 299.915 165.539C292.32 156.63 283.95 148.411 274.904 140.98Z" fill="#3B51F7"/>
<path opacity="0.5" d="M274.904 140.98C251.132 146.073 233.798 183.44 233.798 183.44C233.798 183.44 237.554 185.496 258.286 200.181C262.172 202.975 265.9 205.982 269.452 209.19C275.583 192.21 286.092 177.151 299.915 165.539C292.32 156.63 283.95 148.411 274.904 140.98Z" fill="white"/>
<path d="M274.905 140.98C274.905 140.98 309.345 168.025 323.077 201.831C336.809 235.638 339.593 260.022 331.689 271.794C323.786 283.566 312.354 283.168 304.153 276.737C295.952 270.306 297.001 239.155 297.001 239.155C297.001 239.155 279.101 214.777 258.388 200.063C237.676 185.35 233.9 183.322 233.9 183.322C233.9 183.322 251.181 146.064 274.905 140.98Z" stroke="#263238" stroke-width="1.1133" stroke-linecap="round" stroke-linejoin="round"/>
<path d="M331.691 271.793C332.303 263.358 331.312 254.882 328.769 246.816" stroke="#263238" stroke-width="1.1133" stroke-linecap="round" stroke-linejoin="round"/>
<path d="M317.047 279.874C317.047 279.874 319.967 268.308 315.593 251.302" stroke="#263238" stroke-width="1.1133" stroke-linecap="round" stroke-linejoin="round"/>
<path d="M285.63 205.27C283.847 199.152 291.985 183.797 306.669 173.853C310.495 178.891 313.981 184.179 317.103 189.681C311.141 192.635 305.613 196.392 300.672 200.849C293.383 208.05 287.682 212.153 285.63 205.27Z" fill="#3B51F7" stroke="#263238" stroke-width="1.1133" stroke-linecap="round" stroke-linejoin="round"/>
<path d="M276.93 142.647C282.353 147.23 287.525 152.101 292.424 157.24C287.881 159.98 283.732 163.325 280.09 167.183C265.199 182.932 262.051 185.114 263.41 168.328C264.261 157.849 270.679 148.933 276.93 142.647Z" fill="#3B51F7" stroke="#263238" stroke-width="1.1133" stroke-linecap="round" stroke-linejoin="round"/>
<path d="M74.6589 165.6C74.6589 165.6 72.0255 191.808 76.7171 201.38C81.4088 210.953 92.5097 199.34 107.474 207.898C122.438 216.457 138.133 234.055 187.565 228.459C236.997 222.862 261.411 190.976 268.807 174.328C276.204 157.68 271.88 140.417 289.161 136.188C306.442 131.96 285.283 100.729 278.718 96.2635C278.718 96.2635 303.1 39.2464 300.651 26.3768C298.202 13.5073 266.563 22.3732 229.371 41.8459C229.371 41.8459 196.979 31.8043 145.411 51.1426C93.8436 70.4809 81.2043 89.0916 81.2043 89.0916C81.2043 89.0916 16.59 109.948 13.5777 119.081C10.5654 128.215 30.8554 160.6 74.6589 165.6Z" fill="white"/>
<path d="M289.092 136.226C306.393 131.969 285.215 100.768 278.65 96.3017C278.65 96.3017 283.303 85.5197 288.314 72.1955C266.605 65.6383 246.126 63.5972 242.073 70.3807C233.342 84.9571 243.926 107.684 253.432 130.073C262.937 152.461 244.608 166.266 234.317 189.155C224.026 212.045 199.62 193.655 199.62 193.655C198.032 224.315 164.175 210.865 164.175 210.865C139.604 208.119 95.8327 192.498 100.827 174.798C105.821 157.098 104.97 141.574 88.341 131.155C71.7115 120.736 13.2621 120.552 13.2621 120.552C12.1961 131.072 32.7047 160.966 74.713 165.764C74.713 165.764 72.0797 191.971 76.7713 201.544C81.4629 211.117 92.5639 199.503 107.528 208.062C122.492 216.62 138.187 234.218 187.619 228.622C237.051 223.025 261.465 191.14 268.861 174.491C276.258 157.843 271.787 140.46 289.092 136.226Z" fill="#3B51F7"/>
<path opacity="0.5" d="M289.092 136.226C306.393 131.969 285.215 100.768 278.65 96.3017C278.65 96.3017 283.303 85.5197 288.314 72.1955C266.605 65.6383 246.126 63.5972 242.073 70.3807C233.342 84.9571 243.926 107.684 253.432 130.073C262.937 152.461 244.608 166.266 234.317 189.155C224.026 212.045 199.62 193.655 199.62 193.655C198.032 224.315 164.175 210.865 164.175 210.865C139.604 208.119 95.8327 192.498 100.827 174.798C105.821 157.098 104.97 141.574 88.341 131.155C71.7115 120.736 13.2621 120.552 13.2621 120.552C12.1961 131.072 32.7047 160.966 74.713 165.764C74.713 165.764 72.0797 191.971 76.7713 201.544C81.4629 211.117 92.5639 199.503 107.528 208.062C122.492 216.62 138.187 234.218 187.619 228.622C237.051 223.025 261.465 191.14 268.861 174.491C276.258 157.843 271.787 140.46 289.092 136.226Z" fill="white"/>
<path d="M218.254 155.446C220.055 161.14 208.309 169.882 192.082 174.974C175.856 180.066 161.217 179.586 159.393 173.772C157.569 167.959 169.343 159.36 185.593 154.263C201.843 149.167 216.481 149.771 218.254 155.446Z" fill="#3B51F7"/>
<path opacity="0.5" d="M218.254 155.446C220.055 161.14 208.309 169.882 192.082 174.974C175.856 180.066 161.217 179.586 159.393 173.772C157.569 167.959 169.343 159.36 185.593 154.263C201.843 149.167 216.481 149.771 218.254 155.446Z" fill="white"/>
<path d="M74.6589 165.6C74.6589 165.6 72.0255 191.808 76.7171 201.38C81.4088 210.953 92.5097 199.34 107.474 207.898C122.438 216.457 138.133 234.055 187.565 228.459C236.997 222.862 261.411 190.976 268.807 174.328C276.204 157.68 271.88 140.417 289.161 136.188C306.442 131.96 285.283 100.729 278.718 96.2635C278.718 96.2635 303.1 39.2464 300.651 26.3769C298.202 13.5073 266.563 22.3732 229.371 41.8459C229.371 41.8459 196.979 31.8043 145.411 51.1426C93.8436 70.4809 81.2043 89.0916 81.2043 89.0916C81.2043 89.0916 16.59 109.948 13.5777 119.081C10.5654 128.215 30.8554 160.6 74.6589 165.6Z" stroke="#263238" stroke-width="1.1133" stroke-miterlimit="10"/>
<path d="M250.769 55.8842C229.945 76.4729 241.427 90.9143 253.795 97.7893C261.349 101.993 271.728 99.3251 278.624 96.4294C278.624 96.4294 303.006 39.4123 300.557 26.5428C300.558 26.4188 271.45 35.1989 250.769 55.8842Z" fill="#3B51F7" stroke="#263238" stroke-width="1.1133" stroke-miterlimit="10"/>
<path d="M13.2077 120.389C12.1416 130.909 32.6503 160.803 74.6586 165.601C74.6586 165.601 104.371 156.879 89.6366 134.446C75.8798 113.51 27.1211 116.925 13.2077 120.389Z" fill="#3B51F7" stroke="#263238" stroke-width="1.1133" stroke-miterlimit="10"/>
<path d="M145.277 51.2181C142.254 52.3625 139.354 53.508 136.574 54.6308C145.939 77.8376 161.436 116.504 168.456 115.168C175.476 113.832 172.47 68.7809 170.068 43.68C161.65 45.6523 153.369 48.1703 145.277 51.2181Z" fill="#3B51F7" stroke="#263238" stroke-width="1.1133" stroke-miterlimit="10"/>
<path d="M129.08 115.238C135.569 109.55 128.323 77.4537 123.818 60.1508C116.634 63.4593 109.652 67.1919 102.911 71.3289C108.683 87.2279 122.145 121.308 129.08 115.238Z" fill="#3B51F7" stroke="#263238" stroke-width="1.1133" stroke-miterlimit="10"/>
<path d="M196.954 86.9325C204.927 88.1368 204.018 60.4758 202.447 39.3487C194.666 39.5547 186.911 40.3603 179.253 41.7583C182.245 58.7801 188.319 85.6314 196.954 86.9325Z" fill="#3B51F7" stroke="#263238" stroke-width="1.1133" stroke-miterlimit="10"/>
<path d="M204.642 181.813C197.32 181.307 190.084 183.631 184.427 188.307C184.18 188.52 183.987 188.787 183.862 189.088C183.737 189.389 183.684 189.714 183.708 190.039C183.731 190.364 183.83 190.679 183.996 190.959C184.163 191.238 184.393 191.475 184.667 191.651L199.617 201.177C199.897 201.354 200.216 201.462 200.546 201.492C200.876 201.523 201.209 201.474 201.516 201.35C201.824 201.226 202.098 201.031 202.315 200.78C202.532 200.53 202.687 200.231 202.766 199.909L206.534 184.348C206.599 184.054 206.599 183.751 206.536 183.457C206.473 183.164 206.347 182.888 206.168 182.647C205.988 182.407 205.759 182.208 205.496 182.064C205.232 181.92 204.941 181.834 204.642 181.813Z" fill="#3B51F7" stroke="#263238" stroke-width="1.1133" stroke-linecap="round" stroke-linejoin="round"/>
<path d="M170.715 167.61C173.335 171.886 173.506 176.555 171.09 178.029C168.673 179.503 164.585 177.263 161.946 173.014C159.307 168.766 159.155 164.07 161.572 162.595C163.988 161.121 168.076 163.362 170.715 167.61Z" fill="#263238"/>
<path d="M204.667 157.76C204.669 162.708 206.989 166.843 209.831 166.822C212.672 166.801 214.969 162.752 214.954 157.732C214.939 152.713 212.636 148.673 209.791 148.67C206.945 148.667 204.657 152.764 204.667 157.76Z" fill="#263238"/>
<path d="M202.761 199.885C202.761 199.885 190.189 226.128 170.333 205.907" stroke="#263238" stroke-width="1.1133" stroke-linecap="round" stroke-linejoin="round"/>
<path d="M199.612 201.152C199.612 201.152 213.104 210.683 223.75 201.878C234.395 193.073 225.345 184.256 225.345 184.256" stroke="#263238" stroke-width="1.1133" stroke-linecap="round" stroke-linejoin="round"/>
<path d="M137.251 154.927C137.251 154.927 138.58 139.285 158.859 139.113" stroke="#263238" stroke-width="3.33991" stroke-linecap="round" stroke-linejoin="round"/>
<path d="M194.057 129.964C194.057 129.964 207.214 118.232 223.584 129.887" stroke="#263238" stroke-width="3.33991" stroke-linecap="round" stroke-linejoin="round"/>
<path d="M133.537 196.902L148.468 197.748" stroke="#263238" stroke-width="1.1133" stroke-miterlimit="10" stroke-linecap="round"/>
<path d="M147.694 203.437L135.681 208.172" stroke="#263238" stroke-width="1.1133" stroke-miterlimit="10" stroke-linecap="round"/>
<path d="M151.326 209.525L143.325 215.971" stroke="#263238" stroke-width="1.1133" stroke-miterlimit="10" stroke-linecap="round"/>
<path d="M237.444 170.35L249.364 164.989" stroke="#263238" stroke-width="1.1133" stroke-miterlimit="10" stroke-linecap="round"/>
<path d="M240.964 175.841L249.273 174.26" stroke="#263238" stroke-width="1.1133" stroke-miterlimit="10" stroke-linecap="round"/>
<path d="M243.861 181.45L255.718 182.262" stroke="#263238" stroke-width="1.1133" stroke-miterlimit="10" stroke-linecap="round"/>
</g>
</svg>
