<svg width="252" height="118" viewBox="0 0 252 118" fill="none" xmlns="http://www.w3.org/2000/svg">
<mask id="mask0_135_19507" style="mask-type:alpha" maskUnits="userSpaceOnUse" x="0" y="0" width="252" height="118">
<path d="M0 0H245C248.866 0 252 3.13401 252 7V111C252 114.866 248.866 118 245 118H0V0Z" fill="#8390FA"/>
</mask>
<g mask="url(#mask0_135_19507)">
<ellipse cx="253" cy="-12" rx="164" ry="161" fill="#FFADC5"/>
<g filter="url(#filter0_d_135_19507)">
<path d="M166.121 49.4281C182.984 59.163 181.421 79.6615 165.033 87.9638C148.17 97.6988 120.83 97.6988 103.967 87.9638C86.749 78.5582 85.9959 59.3838 102.859 49.6488C119.722 39.9139 149.258 39.6932 166.121 49.4281Z" fill="#DB3018"/>
</g>
<circle r="34.9964" transform="matrix(0.866044 -0.499967 0.866044 0.499967 134.5 66.2168)" fill="#FE7040" stroke="url(#paint0_linear_135_19507)" stroke-width="0.518481"/>
<g filter="url(#filter1_d_135_19507)">
<path d="M137.695 77.1676C119.689 66.8585 140.444 52.483 153.073 46.5839C161.87 44.6595 170.198 53.743 173.262 58.5253C167.448 60.043 152.197 65.8963 137.695 77.1676Z" fill="#F13E02"/>
</g>
<g filter="url(#filter2_d_135_19507)">
<path d="M133.142 31.8928C145.779 48.3493 132.894 50.9162 118.967 51.4881C110.108 49.8706 105.928 38.2781 104.946 32.684C110.895 33.5258 115.415 36.6988 133.142 31.8928Z" fill="#F13E02"/>
</g>
<g filter="url(#filter3_b_135_19507)">
<path d="M134.62 49.3879C140.53 45.9762 143.223 34.9101 136.062 30.7764C128.902 26.6426 115.045 26.1271 107.884 30.2609C100.724 34.3946 101.529 45.2541 108.689 49.3879C115.85 53.5217 127.459 53.5217 134.62 49.3879Z" fill="white" fill-opacity="0.5"/>
<path d="M141.102 53.1305C128.111 60.6303 126.244 71.7678 136.979 77.9653C137.705 78.3844 138.846 78.3844 139.572 77.9653L184.121 52.2473C184.847 51.8281 184.687 51.0509 184.687 50.1059C184.601 46.1541 184.859 46.1541 184.121 46.3259C182.461 45.6915 177.116 47.9332 175.237 47.557C171.136 46.736 166.6 46.5255 162.007 46.9039C154.675 47.5081 147.195 49.6129 141.102 53.1305Z" fill="white" fill-opacity="0.5"/>
</g>
<g filter="url(#filter4_b_135_19507)">
<path d="M134.357 29.7583C141.373 33.8085 141.373 40.3751 134.357 44.4253C127.342 48.4755 115.967 48.4755 108.951 44.4253C101.935 40.3751 101.935 33.8085 108.951 29.7583C115.967 25.7081 127.342 25.7081 134.357 29.7583Z" fill="white" fill-opacity="0.5" stroke="url(#paint1_linear_135_19507)" stroke-width="0.605519"/>
<path d="M137.241 73.0037C126.696 66.9158 128.468 55.9165 141.364 48.4716C154.26 41.0268 173.313 40.0036 183.859 46.0914C184.44 46.427 184.44 46.9501 183.859 47.2857L139.31 73.0037C138.729 73.3392 137.823 73.3392 137.241 73.0037Z" fill="white" fill-opacity="0.5" stroke="url(#paint2_linear_135_19507)" stroke-width="0.605519"/>
</g>
<g filter="url(#filter5_i_135_19507)">
<path d="M146.977 56.9989L146.977 56.9988C146.983 56.4482 147.763 55.9924 148.717 55.9814L153.516 55.9266L153.658 55.925L153.659 55.843L153.743 48.9933C153.751 48.4414 154.531 47.9858 155.483 47.9757C156.436 47.9657 157.2 48.4016 157.191 48.9481L157.191 48.9483L157.095 56.8799L157.095 56.88C157.092 57.156 156.896 57.4065 156.58 57.5907C156.264 57.7751 155.833 57.8918 155.355 57.8974C155.355 57.8974 155.355 57.8974 155.355 57.8974L148.684 57.9725C148.684 57.9725 148.684 57.9725 148.684 57.9725C147.732 57.9815 146.97 57.5466 146.977 56.9989Z" fill="#FE7040" stroke="url(#paint3_linear_135_19507)" stroke-width="0.238242"/>
</g>
</g>
<defs>
<filter id="filter0_d_135_19507" x="76.7969" y="42.2363" width="115.096" height="84.1382" filterUnits="userSpaceOnUse" color-interpolation-filters="sRGB">
<feFlood flood-opacity="0" result="BackgroundImageFix"/>
<feColorMatrix in="SourceAlpha" type="matrix" values="0 0 0 0 0 0 0 0 0 0 0 0 0 0 0 0 0 0 127 0" result="hardAlpha"/>
<feOffset dy="17.2827"/>
<feGaussianBlur stdDeviation="6.91308"/>
<feComposite in2="hardAlpha" operator="out"/>
<feColorMatrix type="matrix" values="0 0 0 0 1 0 0 0 0 0.462065 0 0 0 0 0.343982 0 0 0 0.5 0"/>
<feBlend mode="normal" in2="BackgroundImageFix" result="effect1_dropShadow_135_19507"/>
<feBlend mode="normal" in="SourceGraphic" in2="effect1_dropShadow_135_19507" result="shape"/>
</filter>
<filter id="filter1_d_135_19507" x="121.776" y="46.3203" width="60.3664" height="50.6279" filterUnits="userSpaceOnUse" color-interpolation-filters="sRGB">
<feFlood flood-opacity="0" result="BackgroundImageFix"/>
<feColorMatrix in="SourceAlpha" type="matrix" values="0 0 0 0 0 0 0 0 0 0 0 0 0 0 0 0 0 0 127 0" result="hardAlpha"/>
<feOffset dy="10.8993"/>
<feGaussianBlur stdDeviation="4.44047"/>
<feComposite in2="hardAlpha" operator="out"/>
<feColorMatrix type="matrix" values="0 0 0 0 0.902202 0 0 0 0 0.237154 0 0 0 0 0.0142334 0 0 0 1 0"/>
<feBlend mode="normal" in2="BackgroundImageFix" result="effect1_dropShadow_135_19507"/>
<feBlend mode="normal" in="SourceGraphic" in2="effect1_dropShadow_135_19507" result="shape"/>
</filter>
<filter id="filter2_d_135_19507" x="96.0653" y="31.8926" width="51.1096" height="39.376" filterUnits="userSpaceOnUse" color-interpolation-filters="sRGB">
<feFlood flood-opacity="0" result="BackgroundImageFix"/>
<feColorMatrix in="SourceAlpha" type="matrix" values="0 0 0 0 0 0 0 0 0 0 0 0 0 0 0 0 0 0 127 0" result="hardAlpha"/>
<feOffset dy="10.8993"/>
<feGaussianBlur stdDeviation="4.44047"/>
<feComposite in2="hardAlpha" operator="out"/>
<feColorMatrix type="matrix" values="0 0 0 0 0.902202 0 0 0 0 0.237154 0 0 0 0 0.0142334 0 0 0 1 0"/>
<feBlend mode="normal" in2="BackgroundImageFix" result="effect1_dropShadow_135_19507"/>
<feBlend mode="normal" in="SourceGraphic" in2="effect1_dropShadow_135_19507" result="shape"/>
</filter>
<filter id="filter3_b_135_19507" x="89.0733" y="13.5801" width="109.455" height="78.5254" filterUnits="userSpaceOnUse" color-interpolation-filters="sRGB">
<feFlood flood-opacity="0" result="BackgroundImageFix"/>
<feGaussianBlur in="BackgroundImage" stdDeviation="6.91308"/>
<feComposite in2="SourceAlpha" operator="in" result="effect1_backgroundBlur_135_19507"/>
<feBlend mode="normal" in="SourceGraphic" in2="effect1_backgroundBlur_135_19507" result="shape"/>
</filter>
<filter id="filter4_b_135_19507" x="89.4922" y="12.6797" width="108.999" height="74.6152" filterUnits="userSpaceOnUse" color-interpolation-filters="sRGB">
<feFlood flood-opacity="0" result="BackgroundImageFix"/>
<feGaussianBlur in="BackgroundImage" stdDeviation="6.91308"/>
<feComposite in2="SourceAlpha" operator="in" result="effect1_backgroundBlur_135_19507"/>
<feBlend mode="normal" in="SourceGraphic" in2="effect1_backgroundBlur_135_19507" result="shape"/>
</filter>
<filter id="filter5_i_135_19507" x="146.831" y="47.8906" width="10.5059" height="10.5697" filterUnits="userSpaceOnUse" color-interpolation-filters="sRGB">
<feFlood flood-opacity="0" result="BackgroundImageFix"/>
<feBlend mode="normal" in="SourceGraphic" in2="BackgroundImageFix" result="shape"/>
<feColorMatrix in="SourceAlpha" type="matrix" values="0 0 0 0 0 0 0 0 0 0 0 0 0 0 0 0 0 0 127 0" result="hardAlpha"/>
<feOffset dy="0.403679"/>
<feGaussianBlur stdDeviation="0.20184"/>
<feComposite in2="hardAlpha" operator="arithmetic" k2="-1" k3="1"/>
<feColorMatrix type="matrix" values="0 0 0 0 0 0 0 0 0 0 0 0 0 0 0 0 0 0 0.1 0"/>
<feBlend mode="normal" in2="shape" result="effect1_innerShadow_135_19507"/>
</filter>
<linearGradient id="paint0_linear_135_19507" x1="6.10957" y1="28.6809" x2="37.0654" y2="57.7142" gradientUnits="userSpaceOnUse">
<stop stop-color="white" stop-opacity="0.43"/>
<stop offset="0.846595" stop-color="white" stop-opacity="0.44"/>
<stop offset="1" stop-color="white" stop-opacity="0"/>
</linearGradient>
<linearGradient id="paint1_linear_135_19507" x1="108.518" y1="41.8838" x2="130.534" y2="40.6616" gradientUnits="userSpaceOnUse">
<stop stop-color="white" stop-opacity="0.43"/>
<stop offset="0.846595" stop-color="white" stop-opacity="0.44"/>
<stop offset="1" stop-color="white" stop-opacity="0"/>
</linearGradient>
<linearGradient id="paint2_linear_135_19507" x1="130.054" y1="64.4409" x2="147.907" y2="75.6144" gradientUnits="userSpaceOnUse">
<stop stop-color="white" stop-opacity="0.43"/>
<stop offset="0.846595" stop-color="white" stop-opacity="0.44"/>
<stop offset="1" stop-color="white" stop-opacity="0"/>
</linearGradient>
<linearGradient id="paint3_linear_135_19507" x1="145.673" y1="54.3871" x2="158.557" y2="60.2161" gradientUnits="userSpaceOnUse">
<stop stop-color="white" stop-opacity="0.25"/>
<stop offset="1" stop-color="white" stop-opacity="0"/>
</linearGradient>
</defs>
</svg>
