<svg width="180" height="60" viewBox="0 0 180 60" fill="none" xmlns="http://www.w3.org/2000/svg">
<path d="M13.34 42.24V23.26H18.384L23.142 34.596H23.61L28.342 23.26H33.464V42.24H29.798V26.042L30.266 26.094L25.144 38.366H21.374L16.226 26.094L16.72 26.042V42.24H13.34ZM45.3746 42.24V38.054H44.7766V33.4C44.7766 32.5853 44.5773 31.9787 44.1786 31.58C43.78 31.1813 43.1646 30.982 42.3326 30.982C41.8993 30.982 41.3793 30.9907 40.7726 31.008C40.166 31.0253 39.5506 31.0513 38.9266 31.086C38.32 31.1033 37.774 31.1293 37.2886 31.164V28.096C37.6873 28.0613 38.138 28.0267 38.6406 27.992C39.1433 27.9573 39.6546 27.94 40.1746 27.94C40.712 27.9227 41.2146 27.914 41.6826 27.914C43.1386 27.914 44.3433 28.1047 45.2966 28.486C46.2673 28.8673 46.9953 29.4653 47.4806 30.28C47.9833 31.0947 48.2346 32.1607 48.2346 33.478V42.24H45.3746ZM40.8246 42.604C39.802 42.604 38.9006 42.422 38.1206 42.058C37.358 41.694 36.76 41.174 36.3266 40.498C35.9106 39.822 35.7026 39.0073 35.7026 38.054C35.7026 37.014 35.954 36.1647 36.4566 35.506C36.9766 34.8473 37.696 34.3533 38.6146 34.024C39.5506 33.6947 40.6426 33.53 41.8906 33.53H45.1666V35.688H41.8386C41.0066 35.688 40.3653 35.896 39.9146 36.312C39.4813 36.7107 39.2646 37.2307 39.2646 37.872C39.2646 38.5133 39.4813 39.0333 39.9146 39.432C40.3653 39.8307 41.0066 40.03 41.8386 40.03C42.3413 40.03 42.8006 39.9433 43.2166 39.77C43.65 39.5793 44.0053 39.2673 44.2826 38.834C44.5773 38.3833 44.742 37.7767 44.7766 37.014L45.6606 38.028C45.574 39.016 45.3313 39.848 44.9326 40.524C44.5513 41.2 44.014 41.72 43.3206 42.084C42.6446 42.4307 41.8126 42.604 40.8246 42.604ZM51.0658 42.24V28.122H53.9258V34.102H53.8478C53.8478 32.074 54.2811 30.54 55.1478 29.5C56.0145 28.46 57.2885 27.94 58.9698 27.94H59.4898V31.086H58.5018C57.2885 31.086 56.3438 31.4153 55.6678 32.074C55.0091 32.7153 54.6798 33.6513 54.6798 34.882V42.24H51.0658ZM70.7476 42.24L66.0156 35.636H63.9096L69.9156 28.122H73.6856L68.1476 35.064L68.2256 33.244L74.8296 42.24H70.7476ZM60.8676 42.24V23.26H64.4816V42.24H60.8676ZM81.7354 42.734C80.5221 42.734 79.4561 42.526 78.5374 42.11C77.6361 41.694 76.8821 41.1393 76.2754 40.446C75.6861 39.7353 75.2354 38.9467 74.9234 38.08C74.6288 37.2133 74.4814 36.3293 74.4814 35.428V34.934C74.4814 33.998 74.6288 33.0967 74.9234 32.23C75.2354 31.346 75.6861 30.566 76.2754 29.89C76.8821 29.1967 77.6274 28.6507 78.5114 28.252C79.3954 27.836 80.4181 27.628 81.5794 27.628C83.1048 27.628 84.3788 27.966 85.4014 28.642C86.4414 29.3007 87.2214 30.176 87.7414 31.268C88.2614 32.3427 88.5214 33.504 88.5214 34.752V36.052H76.0154V33.842H86.2594L85.1414 34.934C85.1414 34.0327 85.0114 33.2613 84.7514 32.62C84.4914 31.9787 84.0928 31.4847 83.5554 31.138C83.0354 30.7913 82.3768 30.618 81.5794 30.618C80.7821 30.618 80.1061 30.8 79.5514 31.164C78.9968 31.528 78.5721 32.0567 78.2774 32.75C78.0001 33.426 77.8614 34.2407 77.8614 35.194C77.8614 36.078 78.0001 36.8667 78.2774 37.56C78.5548 38.236 78.9794 38.7733 79.5514 39.172C80.1234 39.5533 80.8514 39.744 81.7354 39.744C82.6194 39.744 83.3388 39.5707 83.8934 39.224C84.4481 38.86 84.8034 38.418 84.9594 37.898H88.2874C88.0794 38.8687 87.6808 39.718 87.0914 40.446C86.5021 41.174 85.7481 41.7373 84.8294 42.136C83.9281 42.5347 82.8968 42.734 81.7354 42.734ZM96.6365 42.422C95.3365 42.422 94.2618 42.2573 93.4125 41.928C92.5805 41.5813 91.9565 41.0093 91.5405 40.212C91.1245 39.3973 90.9165 38.3053 90.9165 36.936L90.9425 24.144H94.3225L94.2965 37.17C94.2965 37.8633 94.4785 38.4007 94.8425 38.782C95.2238 39.146 95.7612 39.328 96.4545 39.328H98.6645V42.422H96.6365ZM88.6805 30.774V28.122H98.6645V30.774H88.6805ZM100.658 47.44V28.122H103.518V34.206L103.076 34.18C103.145 32.7413 103.44 31.5367 103.96 30.566C104.497 29.5953 105.208 28.876 106.092 28.408C106.976 27.9227 107.964 27.68 109.056 27.68C110.061 27.68 110.962 27.862 111.76 28.226C112.574 28.59 113.268 29.1013 113.84 29.76C114.429 30.4187 114.88 31.19 115.192 32.074C115.504 32.9407 115.66 33.8767 115.66 34.882V35.428C115.66 36.4507 115.504 37.404 115.192 38.288C114.897 39.1547 114.455 39.926 113.866 40.602C113.294 41.2607 112.6 41.7807 111.786 42.162C110.971 42.526 110.061 42.708 109.056 42.708C107.998 42.708 107.028 42.4913 106.144 42.058C105.277 41.6073 104.575 40.9227 104.038 40.004C103.5 39.068 103.197 37.8633 103.128 36.39L104.272 38.132V47.44H100.658ZM108.146 39.666C108.926 39.666 109.602 39.4753 110.174 39.094C110.763 38.7127 111.222 38.184 111.552 37.508C111.881 36.8147 112.046 36.0347 112.046 35.168C112.046 34.2667 111.881 33.4867 111.552 32.828C111.222 32.1693 110.763 31.658 110.174 31.294C109.602 30.9127 108.926 30.722 108.146 30.722C107.435 30.722 106.776 30.878 106.17 31.19C105.58 31.502 105.095 31.9613 104.714 32.568C104.35 33.1747 104.168 33.9027 104.168 34.752V35.792C104.168 36.6067 104.358 37.3 104.74 37.872C105.121 38.444 105.615 38.886 106.222 39.198C106.828 39.51 107.47 39.666 108.146 39.666ZM117.979 42.24V23.26H121.593V42.24H117.979ZM116.211 25.964V23.26H121.593V25.964H116.211ZM133.233 42.24V38.054H132.635V33.4C132.635 32.5853 132.436 31.9787 132.037 31.58C131.639 31.1813 131.023 30.982 130.191 30.982C129.758 30.982 129.238 30.9907 128.631 31.008C128.025 31.0253 127.409 31.0513 126.785 31.086C126.179 31.1033 125.633 31.1293 125.147 31.164V28.096C125.546 28.0613 125.997 28.0267 126.499 27.992C127.002 27.9573 127.513 27.94 128.033 27.94C128.571 27.9227 129.073 27.914 129.541 27.914C130.997 27.914 132.202 28.1047 133.155 28.486C134.126 28.8673 134.854 29.4653 135.339 30.28C135.842 31.0947 136.093 32.1607 136.093 33.478V42.24H133.233ZM128.683 42.604C127.661 42.604 126.759 42.422 125.979 42.058C125.217 41.694 124.619 41.174 124.185 40.498C123.769 39.822 123.561 39.0073 123.561 38.054C123.561 37.014 123.813 36.1647 124.315 35.506C124.835 34.8473 125.555 34.3533 126.473 34.024C127.409 33.6947 128.501 33.53 129.749 33.53H133.025V35.688H129.697C128.865 35.688 128.224 35.896 127.773 36.312C127.34 36.7107 127.123 37.2307 127.123 37.872C127.123 38.5133 127.34 39.0333 127.773 39.432C128.224 39.8307 128.865 40.03 129.697 40.03C130.2 40.03 130.659 39.9433 131.075 39.77C131.509 39.5793 131.864 39.2673 132.141 38.834C132.436 38.3833 132.601 37.7767 132.635 37.014L133.519 38.028C133.433 39.016 133.19 39.848 132.791 40.524C132.41 41.2 131.873 41.72 131.179 42.084C130.503 42.4307 129.671 42.604 128.683 42.604ZM145.19 42.734C143.96 42.734 142.894 42.526 141.992 42.11C141.108 41.694 140.363 41.1393 139.756 40.446C139.167 39.7527 138.725 38.9727 138.43 38.106C138.136 37.2393 137.988 36.3553 137.988 35.454V34.96C137.988 34.0067 138.136 33.0967 138.43 32.23C138.742 31.346 139.202 30.566 139.808 29.89C140.415 29.1967 141.16 28.6507 142.044 28.252C142.946 27.836 143.986 27.628 145.164 27.628C146.395 27.628 147.496 27.8707 148.466 28.356C149.437 28.824 150.208 29.4827 150.78 30.332C151.37 31.1813 151.699 32.1693 151.768 33.296H148.258C148.172 32.568 147.86 31.9613 147.322 31.476C146.802 30.9907 146.083 30.748 145.164 30.748C144.367 30.748 143.7 30.9387 143.162 31.32C142.642 31.7013 142.252 32.23 141.992 32.906C141.732 33.5647 141.602 34.3273 141.602 35.194C141.602 36.026 141.724 36.78 141.966 37.456C142.226 38.132 142.616 38.6607 143.136 39.042C143.674 39.4233 144.358 39.614 145.19 39.614C145.814 39.614 146.352 39.5013 146.802 39.276C147.253 39.0507 147.608 38.7387 147.868 38.34C148.146 37.9413 148.319 37.4907 148.388 36.988H151.898C151.829 38.132 151.491 39.1373 150.884 40.004C150.295 40.8533 149.506 41.5207 148.518 42.006C147.548 42.4913 146.438 42.734 145.19 42.734ZM160.072 42.734C158.858 42.734 157.792 42.526 156.874 42.11C155.972 41.694 155.218 41.1393 154.612 40.446C154.022 39.7353 153.572 38.9467 153.26 38.08C152.965 37.2133 152.818 36.3293 152.818 35.428V34.934C152.818 33.998 152.965 33.0967 153.26 32.23C153.572 31.346 154.022 30.566 154.612 29.89C155.218 29.1967 155.964 28.6507 156.848 28.252C157.732 27.836 158.754 27.628 159.916 27.628C161.441 27.628 162.715 27.966 163.738 28.642C164.778 29.3007 165.558 30.176 166.078 31.268C166.598 32.3427 166.858 33.504 166.858 34.752V36.052H154.352V33.842H164.596L163.478 34.934C163.478 34.0327 163.348 33.2613 163.088 32.62C162.828 31.9787 162.429 31.4847 161.892 31.138C161.372 30.7913 160.713 30.618 159.916 30.618C159.118 30.618 158.442 30.8 157.888 31.164C157.333 31.528 156.908 32.0567 156.614 32.75C156.336 33.426 156.198 34.2407 156.198 35.194C156.198 36.078 156.336 36.8667 156.614 37.56C156.891 38.236 157.316 38.7733 157.888 39.172C158.46 39.5533 159.188 39.744 160.072 39.744C160.956 39.744 161.675 39.5707 162.23 39.224C162.784 38.86 163.14 38.418 163.296 37.898H166.624C166.416 38.8687 166.017 39.718 165.428 40.446C164.838 41.174 164.084 41.7373 163.166 42.136C162.264 42.5347 161.233 42.734 160.072 42.734Z" fill="#282A2E"/>
<path d="M131.656 18.6556C131.656 14.9798 134.636 12 138.312 12H161.55C164.56 12 167 14.44 167 17.4499C167 20.4597 164.56 22.8997 161.55 22.8997H131.656V18.6556Z" fill="#3B51F7"/>
<path d="M137.67 16.0505V20.9119L136.017 19.9697V14.9444L137.67 16.0505Z" fill="#FFF2D9"/>
<path d="M137.835 14.002L136.017 14.9442L139.654 16.5146V18.3991L137.956 19.1843L137.67 20.9118L138.579 20.4799L139.489 20.0481L141.307 19.1843V15.7294L137.835 14.002Z" fill="#FFF2D9"/>
<path d="M144.913 19.5471V18.7805H145.738C145.947 18.7805 146.133 18.7492 146.296 18.6867C146.463 18.6242 146.603 18.5378 146.717 18.4276C146.834 18.3136 146.923 18.1794 146.984 18.025C147.045 17.8669 147.075 17.6922 147.075 17.5011C147.075 17.3062 147.045 17.1316 146.984 16.9772C146.923 16.8191 146.834 16.6849 146.717 16.5746C146.603 16.4643 146.463 16.3816 146.296 16.3264C146.133 16.2676 145.947 16.2382 145.738 16.2382H144.913V15.4716H145.693C146.068 15.4716 146.394 15.5249 146.671 15.6316C146.952 15.7382 147.185 15.8852 147.371 16.0727C147.561 16.2566 147.701 16.4661 147.792 16.7014C147.887 16.9367 147.934 17.183 147.934 17.4404V17.5617C147.934 17.8044 147.887 18.0452 147.792 18.2842C147.701 18.5195 147.561 18.7327 147.371 18.9239C147.185 19.1114 146.952 19.2621 146.671 19.3761C146.394 19.4901 146.068 19.5471 145.693 19.5471H144.913ZM144.173 19.5471V15.4716H145.027V19.5471H144.173Z" fill="#FFF2D9"/>
<path d="M149.859 19.6298C149.593 19.6298 149.36 19.5857 149.159 19.4974C148.958 19.4092 148.791 19.2915 148.658 19.1445C148.525 18.9937 148.425 18.8265 148.357 18.6426C148.288 18.4588 148.254 18.2695 148.254 18.0746V17.9698C148.254 17.7713 148.288 17.5801 148.357 17.3963C148.425 17.2088 148.523 17.0415 148.652 16.8944C148.785 16.7474 148.95 16.6316 149.147 16.547C149.345 16.4588 149.57 16.4147 149.825 16.4147C150.158 16.4147 150.437 16.4863 150.661 16.6297C150.889 16.7731 151.061 16.9606 151.179 17.1922C151.296 17.4239 151.355 17.6739 151.355 17.9423V18.2235H148.607V17.7437H150.837L150.576 17.9753C150.576 17.7878 150.547 17.6279 150.49 17.4956C150.437 17.3632 150.354 17.2621 150.24 17.1922C150.13 17.1187 149.991 17.0819 149.825 17.0819C149.654 17.0819 149.51 17.1187 149.392 17.1922C149.275 17.2658 149.185 17.3742 149.125 17.5176C149.064 17.6573 149.034 17.8264 149.034 18.025C149.034 18.2125 149.062 18.3779 149.119 18.5213C149.176 18.661 149.265 18.7713 149.386 18.8522C149.508 18.9294 149.665 18.968 149.859 18.968C150.041 18.968 150.189 18.9331 150.302 18.8632C150.42 18.7897 150.498 18.7015 150.536 18.5985H151.298C151.253 18.8044 151.164 18.9845 151.031 19.139C150.902 19.2934 150.737 19.4147 150.536 19.5029C150.339 19.5875 150.113 19.6298 149.859 19.6298Z" fill="#FFF2D9"/>
<path d="M151.51 19.525L152.505 17.9202L152.483 18.0525L151.549 16.5194H152.448L153.052 17.5672H153.137L153.706 16.5194H154.554L153.666 18.0525L153.683 17.9367L154.73 19.525H153.831L153.114 18.4055H153.029L152.357 19.525H151.51Z" fill="#FFF2D9"/>
<path d="M157.875 19.525L156.39 17.6445H155.804L157.591 15.4992H158.564L156.959 17.4294L156.937 17.0378L158.911 19.525H157.875ZM155.173 19.525V15.4992H156.026V19.525H155.173Z" fill="#FFF2D9"/>
<path d="M159.34 19.525V16.5194H160.17V19.525H159.34ZM158.913 17.1205V16.5194H160.17V17.1205H158.913ZM159.653 16.183C159.489 16.183 159.37 16.1426 159.294 16.0617C159.218 15.9808 159.18 15.8779 159.18 15.7529C159.18 15.6279 159.218 15.5249 159.294 15.444C159.37 15.3632 159.488 15.3227 159.647 15.3227C159.81 15.3227 159.929 15.3632 160.005 15.444C160.081 15.5249 160.119 15.6279 160.119 15.7529C160.119 15.8779 160.081 15.9808 160.005 16.0617C159.929 16.1426 159.812 16.183 159.653 16.183Z" fill="#FFF2D9"/>
<path d="M162.31 19.5636C162.015 19.5636 161.774 19.5268 161.588 19.4533C161.402 19.3798 161.264 19.2566 161.172 19.0838C161.081 18.911 161.036 18.6776 161.036 18.3834L161.042 15.6867H161.815V18.4276C161.815 18.5709 161.855 18.6831 161.935 18.764C162.015 18.8412 162.128 18.8798 162.276 18.8798H162.754V19.5636H162.31ZM160.552 17.115V16.5194H162.754V17.115H160.552Z" fill="#FFF2D9"/>
</svg>
